<svg width="101" height="67" viewBox="0 0 101 67" fill="none" xmlns="http://www.w3.org/2000/svg">
<g clip-path="url(#clip0_216_717)">
<path fill-rule="evenodd" clip-rule="evenodd" d="M33.4941 18.3313C41.8558 18.3376 48.6281 25.077 48.6217 33.3849C48.6154 41.6928 41.8324 48.4216 33.4707 48.4152C25.109 48.4089 18.3366 41.6695 18.343 33.3616C18.3494 25.0537 25.1324 18.325 33.4941 18.3313Z" fill="#F9C900"/>
<path fill-rule="evenodd" clip-rule="evenodd" d="M29.8842 53.4352C29.8842 53.617 29.8608 53.7988 29.8118 53.9827L27.2991 63.2694C26.9948 64.3941 25.831 65.06 24.6991 64.7577C23.565 64.4554 22.8948 63.299 23.1991 62.1744L25.7118 52.8877C26.0161 51.7631 27.1799 51.0972 28.3118 51.3974C29.2608 51.651 29.8842 52.5051 29.8842 53.4352Z" fill="#F9C900"/>
<path fill-rule="evenodd" clip-rule="evenodd" d="M19.3675 49.6227C19.3675 50.1914 19.1378 50.7579 18.6824 51.1722L11.5654 57.6896C10.7037 58.4781 9.36117 58.4232 8.56755 57.567C7.77181 56.7108 7.82712 55.3769 8.68883 54.5863L15.8058 48.0711C16.6697 47.2825 18.0122 47.3354 18.8058 48.1937C19.1824 48.5974 19.3675 49.1111 19.3675 49.6227Z" fill="#F9C900"/>
<mask id="mask0_216_717" style="mask-type:luminance" maskUnits="userSpaceOnUse" x="0" y="37" width="14" height="7">
<path fill-rule="evenodd" clip-rule="evenodd" d="M0 37.2717V43.897H13.616V37.2717L0 37.2717L0 37.2717Z" fill="white"/>
</mask>
<g mask="url(#mask0_216_717)">
<path fill-rule="evenodd" clip-rule="evenodd" d="M13.6158 39.3837C13.6158 40.3223 12.9797 41.1763 12.0244 41.4215L2.65414 43.8294C1.52009 44.1211 0.36052 43.4425 0.0669034 42.3158C-0.224586 41.189 0.456265 40.0369 1.59244 39.7452L10.9626 37.3395C12.0967 37.0477 13.2541 37.7242 13.5478 38.8531C13.5946 39.0306 13.6158 39.2082 13.6158 39.3837Z" fill="#F9C900"/>
</g>
<path fill-rule="evenodd" clip-rule="evenodd" d="M13.9137 27.5692C13.9137 27.7425 13.8925 27.918 13.8456 28.0955C13.5542 29.2223 12.3967 29.9009 11.2627 29.6112L1.8882 27.214C0.75416 26.9244 0.0711809 25.7723 0.36267 24.6455C0.65416 23.5188 1.81161 22.8402 2.94778 23.1298L12.3201 25.5271C13.2776 25.7723 13.9137 26.6284 13.9137 27.5692Z" fill="#F9C900"/>
<path fill-rule="evenodd" clip-rule="evenodd" d="M19.3153 17.3003C19.3153 17.8288 19.1174 18.3573 18.7174 18.7653C17.9025 19.6024 16.5578 19.6236 15.7153 18.8139L8.76421 12.1232C7.92166 11.3135 7.90038 9.97963 8.71527 9.1425C9.53017 8.30537 10.8748 8.28423 11.7174 9.09388L18.6685 15.7825C19.1004 16.1968 19.3153 16.7486 19.3153 17.3003Z" fill="#F9C900"/>
<path fill-rule="evenodd" clip-rule="evenodd" d="M29.1761 11.4368C29.1761 12.3796 28.5335 13.2379 27.5718 13.4789C26.4356 13.7642 25.2803 13.0793 24.9952 11.9483L22.6293 2.62362C22.3442 1.49265 23.0335 0.348987 24.1697 0.0636012C25.3059 -0.219671 26.4612 0.465256 26.7463 1.59412L29.1122 10.9188C29.1548 11.0922 29.1761 11.2655 29.1761 11.4368Z" fill="#F9C900"/>
<path fill-rule="evenodd" clip-rule="evenodd" d="M43.3852 2.79935C43.3852 2.97692 43.3618 3.15661 43.315 3.3363L40.8555 12.6357C40.5576 13.7624 39.3959 14.4346 38.2618 14.1387C37.1299 13.8427 36.4512 12.6885 36.7491 11.5639L39.2087 2.2624C39.5065 1.13777 40.6682 0.463412 41.8023 0.759367C42.7555 1.00882 43.3852 1.86286 43.3852 2.79935Z" fill="#F9C900"/>
<path fill-rule="evenodd" clip-rule="evenodd" d="M58.7764 10.829C58.7764 11.4167 58.5296 12.0023 58.0466 12.4188L50.7445 18.7311C49.8615 19.4942 48.519 19.4012 47.7509 18.5239C46.9807 17.6445 47.0743 16.3127 47.9594 15.5474L55.2615 9.23723C56.1445 8.47197 57.4849 8.56499 58.2552 9.4444C58.6062 9.84394 58.7764 10.3386 58.7764 10.829Z" fill="#F9C900"/>
<path fill-rule="evenodd" clip-rule="evenodd" d="M66.302 24.903C66.302 25.8289 65.6828 26.6766 64.7403 26.9345L55.4084 29.4776C54.2764 29.7863 53.1084 29.1267 52.7998 28.0021C52.4892 26.8774 53.153 25.719 54.285 25.4103L63.6169 22.8672C64.7488 22.5586 65.9147 23.2181 66.2254 24.3428C66.2764 24.5288 66.302 24.7169 66.302 24.903Z" fill="#F9C900"/>
<path fill-rule="evenodd" clip-rule="evenodd" d="M66.1415 41.3442C66.1415 41.5175 66.1202 41.693 66.0734 41.8706C65.7819 42.9973 64.6245 43.6759 63.4904 43.3863L54.116 40.989C52.9819 40.6994 52.2968 39.5494 52.5904 38.4206C52.8819 37.2938 54.0394 36.6152 55.1755 36.9048L64.5479 39.3021C65.5053 39.5473 66.1415 40.4035 66.1415 41.3442Z" fill="#F9C900"/>
<path fill-rule="evenodd" clip-rule="evenodd" d="M58.2156 55.8243C58.2156 56.3718 58.0029 56.9172 57.5773 57.3294C56.739 58.1454 55.3944 58.1306 54.5752 57.2977L47.8092 50.4209C46.9901 49.588 47.005 48.2541 47.8433 47.4403C48.6816 46.6243 50.0263 46.6391 50.8454 47.472L57.6114 54.3487C58.0156 54.7588 58.2156 55.2915 58.2156 55.8243Z" fill="#F9C900"/>
<path fill-rule="evenodd" clip-rule="evenodd" d="M43.6032 63.6011C43.6032 64.5313 42.9798 65.3811 42.033 65.6348C40.9011 65.9371 39.7351 65.2712 39.4309 64.1465L36.9117 54.862C36.6075 53.7373 37.2777 52.581 38.4096 52.2766C39.5415 51.9743 40.7075 52.6402 41.0117 53.7648L43.5287 63.0494C43.5798 63.2333 43.6032 63.4193 43.6032 63.6011Z" fill="#F9C900"/>
<mask id="mask1_216_717" style="mask-type:luminance" maskUnits="userSpaceOnUse" x="18" y="19" width="82" height="48">
<path fill-rule="evenodd" clip-rule="evenodd" d="M18.1162 66.2364H99.1779V19.9772H18.1162V66.2364Z" fill="white"/>
</mask>
<g mask="url(#mask1_216_717)">
<path fill-rule="evenodd" clip-rule="evenodd" d="M30.3928 41.5989C23.6247 41.5989 18.1162 47.1248 18.1162 53.9191C18.1162 60.7092 23.6247 66.2373 30.3928 66.2373H83.7694C92.2673 66.2373 99.1779 59.2992 99.1779 50.7714C99.1779 42.2437 92.2673 35.3056 83.7694 35.3056C82.1886 35.3056 80.6162 35.5509 79.1013 36.0307L78.1141 36.3457L77.7651 35.3648C74.5034 26.1606 65.7843 19.9772 56.0715 19.9772C44.1971 19.9772 34.3417 28.9066 33.146 40.747L33.0354 41.8441L31.946 41.7089C31.3417 41.6327 30.8481 41.5989 30.3928 41.5989Z" fill="#D6E3F2"/>
</g>
</g>
<defs>
<clipPath id="clip0_216_717">
<rect width="101" height="67" fill="white"/>
</clipPath>
</defs>
</svg>
