<svg width="100" height="66" viewBox="0 0 100 66" fill="none" xmlns="http://www.w3.org/2000/svg">
<g clip-path="url(#clip0_216_738)">
<path fill-rule="evenodd" clip-rule="evenodd" d="M30.2736 16.5172C37.8313 16.5229 43.9524 22.5952 43.9467 30.081C43.9409 37.5667 37.8101 43.6295 30.2524 43.6238C22.6947 43.6181 16.5736 37.5457 16.5793 30.06C16.5851 22.5743 22.7159 16.5114 30.2736 16.5172Z" fill="#F9C900"/>
<path fill-rule="evenodd" clip-rule="evenodd" d="M27.0107 48.147C27.0107 48.3108 26.9895 48.4746 26.9453 48.6404L24.6741 57.008C24.3991 58.0213 23.3472 58.6213 22.3241 58.3489C21.2991 58.0765 20.6934 57.0346 20.9684 56.0213L23.2395 47.6537C23.5145 46.6404 24.5664 46.0404 25.5895 46.3108C26.4472 46.5394 27.0107 47.3089 27.0107 48.147Z" fill="#F9C900"/>
<path fill-rule="evenodd" clip-rule="evenodd" d="M17.5055 44.7118C17.5055 45.2242 17.2978 45.7346 16.8862 46.108L10.4535 51.9803C9.67469 52.6908 8.46122 52.6413 7.74392 51.8699C7.02469 51.0984 7.07469 49.8965 7.85353 49.1842L14.2862 43.3137C15.067 42.6032 16.2805 42.6508 16.9978 43.4242C17.3381 43.788 17.5055 44.2508 17.5055 44.7118Z" fill="#F9C900"/>
<mask id="mask0_216_738" style="mask-type:luminance" maskUnits="userSpaceOnUse" x="0" y="33" width="13" height="7">
<path fill-rule="evenodd" clip-rule="evenodd" d="M0 33.5831V39.5528H12.3067V33.5831L0 33.5831L0 33.5831Z" fill="white"/>
</mask>
<g mask="url(#mask0_216_738)">
<path fill-rule="evenodd" clip-rule="evenodd" d="M12.3068 35.4861C12.3068 36.3318 11.7318 37.1014 10.8684 37.3223L2.39913 39.4918C1.37413 39.7547 0.326052 39.1433 0.0606675 38.128C-0.202794 37.1128 0.412591 36.0747 1.43951 35.8118L9.90874 33.6442C10.9337 33.3814 11.9799 33.9909 12.2453 35.008C12.2876 35.168 12.3068 35.328 12.3068 35.4861Z" fill="#F9C900"/>
</g>
<path fill-rule="evenodd" clip-rule="evenodd" d="M12.576 24.8407C12.576 24.9969 12.5567 25.155 12.5144 25.315C12.251 26.3303 11.2048 26.9417 10.1798 26.6807L1.70673 24.5207C0.681729 24.2598 0.0644211 23.2217 0.327883 22.2064C0.591344 21.1912 1.6375 20.5798 2.66442 20.8407L11.1356 23.0007C12.001 23.2217 12.576 23.9931 12.576 24.8407Z" fill="#F9C900"/>
<path fill-rule="evenodd" clip-rule="evenodd" d="M17.4581 15.5882C17.4581 16.0644 17.2792 16.5406 16.9177 16.9082C16.1812 17.6625 14.9658 17.6815 14.2042 16.952L7.92155 10.9234C7.16001 10.1939 7.14078 8.99199 7.87732 8.2377C8.61386 7.48342 9.82924 7.46437 10.5908 8.19389L16.8735 14.2206C17.2639 14.5939 17.4581 15.091 17.4581 15.5882Z" fill="#F9C900"/>
<path fill-rule="evenodd" clip-rule="evenodd" d="M26.3705 10.3051C26.3705 11.1547 25.7897 11.928 24.9205 12.1451C23.8935 12.4023 22.8493 11.7851 22.5916 10.7661L20.4532 2.36419C20.1955 1.34514 20.8185 0.314664 21.8455 0.0575208C22.8724 -0.197717 23.9166 0.419426 24.1743 1.43657L26.3128 9.83847C26.3512 9.99466 26.3705 10.1509 26.3705 10.3051Z" fill="#F9C900"/>
<path fill-rule="evenodd" clip-rule="evenodd" d="M39.2136 2.52227C39.2136 2.68227 39.1924 2.84417 39.1501 3.00608L36.927 11.3851C36.6578 12.4004 35.6078 13.0061 34.5828 12.7394C33.5597 12.4727 32.9462 11.4327 33.2155 10.4194L35.4386 2.03846C35.7078 1.02513 36.7578 0.417508 37.7828 0.684174C38.6443 0.908936 39.2136 1.67846 39.2136 2.52227Z" fill="#F9C900"/>
<path fill-rule="evenodd" clip-rule="evenodd" d="M53.1249 9.75731C53.1249 10.2868 52.9018 10.8144 52.4653 11.1897L45.8653 16.8773C45.0672 17.5649 43.8537 17.4811 43.1595 16.6906C42.4633 15.8983 42.5479 14.6983 43.3479 14.0087L49.9479 8.32302C50.746 7.6335 51.9576 7.71731 52.6537 8.50969C52.971 8.86969 53.1249 9.3154 53.1249 9.75731Z" fill="#F9C900"/>
<path fill-rule="evenodd" clip-rule="evenodd" d="M59.9268 22.4385C59.9268 23.2728 59.3671 24.0366 58.5152 24.269L50.0806 26.5604C49.0575 26.8385 48.0018 26.2442 47.7229 25.2309C47.4421 24.2175 48.0421 23.1737 49.0652 22.8956L57.4998 20.6042C58.5229 20.3261 59.5768 20.9204 59.8575 21.9337C59.9037 22.1014 59.9268 22.2709 59.9268 22.4385Z" fill="#F9C900"/>
<path fill-rule="evenodd" clip-rule="evenodd" d="M59.7817 37.2526C59.7817 37.4088 59.7624 37.5669 59.7201 37.7269C59.4567 38.7421 58.4105 39.3535 57.3855 39.0926L48.9124 36.9326C47.8874 36.6716 47.2682 35.6355 47.5336 34.6183C47.7971 33.6031 48.8432 32.9916 49.8701 33.2526L58.3413 35.4126C59.2067 35.6335 59.7817 36.405 59.7817 37.2526Z" fill="#F9C900"/>
<path fill-rule="evenodd" clip-rule="evenodd" d="M52.6178 50.2996C52.6178 50.793 52.4255 51.2844 52.0409 51.6558C51.2832 52.3911 50.0678 52.3777 49.3274 51.6273L43.212 45.4311C42.4717 44.6806 42.4851 43.4787 43.2428 42.7454C44.0005 42.0101 45.2159 42.0235 45.9563 42.7739L52.0717 48.9701C52.437 49.3396 52.6178 49.8196 52.6178 50.2996Z" fill="#F9C900"/>
<path fill-rule="evenodd" clip-rule="evenodd" d="M39.4105 57.3069C39.4105 58.145 38.847 58.9107 37.9913 59.1393C36.9682 59.4116 35.9143 58.8116 35.6393 57.7983L33.3624 49.4326C33.0874 48.4193 33.6932 47.3773 34.7163 47.1031C35.7393 46.8307 36.7932 47.4307 37.0682 48.444L39.3432 56.8097C39.3893 56.9754 39.4105 57.1431 39.4105 57.3069Z" fill="#F9C900"/>
<mask id="mask1_216_738" style="mask-type:luminance" maskUnits="userSpaceOnUse" x="33" y="14" width="67" height="39">
<path fill-rule="evenodd" clip-rule="evenodd" d="M99.3444 52.7371V14.8781H33.0242V52.7371H99.3444Z" fill="white"/>
</mask>
<g mask="url(#mask1_216_738)">
<path fill-rule="evenodd" clip-rule="evenodd" d="M89.3011 32.5733C94.8396 32.5733 99.3453 37.0952 99.3453 42.6571C99.3453 48.2152 94.8396 52.7371 89.3011 52.7371H45.6299C38.6799 52.7371 33.0242 47.059 33.0242 40.08C33.0242 33.1009 38.6799 27.4228 45.6299 27.4228C46.9242 27.4228 48.2107 27.6228 49.4492 28.0171L50.2588 28.2742L50.5434 27.4723C53.2126 19.939 60.3453 14.8781 68.2915 14.8781C78.0069 14.8781 86.0703 22.1847 87.0492 31.8761L87.1396 32.7733L88.0319 32.6628C88.5242 32.6019 88.928 32.5733 89.3011 32.5733Z" fill="#BAC6D1"/>
</g>
<mask id="mask2_216_738" style="mask-type:luminance" maskUnits="userSpaceOnUse" x="6" y="23" width="74" height="43">
<path fill-rule="evenodd" clip-rule="evenodd" d="M6.62866 65.2621H79.896V23.581H6.62866V65.2621Z" fill="white"/>
</mask>
<g mask="url(#mask2_216_738)">
<path fill-rule="evenodd" clip-rule="evenodd" d="M17.7248 43.0629C11.6075 43.0629 6.62866 48.0419 6.62866 54.1639C6.62866 60.2819 11.6075 65.2629 17.7248 65.2629H65.969C73.6498 65.2629 79.896 59.0115 79.896 51.3277C79.896 43.6439 73.6498 37.3924 65.969 37.3924C64.5402 37.3924 63.119 37.6134 61.7498 38.0458L60.8575 38.3296L60.5421 37.4458C57.594 29.1524 49.7133 23.581 40.9344 23.581C30.2017 23.581 21.294 31.6267 20.2133 42.2953L20.1133 43.2839L19.1287 43.1619C18.5825 43.0934 18.1364 43.0629 17.7248 43.0629Z" fill="#D6E3F2"/>
</g>
</g>
<defs>
<clipPath id="clip0_216_738">
<rect width="100" height="66" fill="white"/>
</clipPath>
</defs>
</svg>
