<svg width="101" height="85" viewBox="0 0 101 85" fill="none" xmlns="http://www.w3.org/2000/svg">
<g clip-path="url(#clip0_238_104)">
<path fill-rule="evenodd" clip-rule="evenodd" d="M33.4941 18.3313C41.8558 18.3376 48.6281 25.077 48.6217 33.3849C48.6154 41.6928 41.8324 48.4216 33.4707 48.4152C25.109 48.4089 18.3366 41.6695 18.343 33.3616C18.3494 25.0537 25.1324 18.325 33.4941 18.3313Z" fill="#F9C900"/>
<path fill-rule="evenodd" clip-rule="evenodd" d="M29.8843 53.4352C29.8843 53.617 29.8609 53.7988 29.8119 53.9827L27.2992 63.2694C26.9949 64.3941 25.8311 65.06 24.6992 64.7577C23.5651 64.4554 22.8949 63.299 23.1992 62.1744L25.7119 52.8877C26.0162 51.7631 27.18 51.0972 28.3119 51.3974C29.2609 51.651 29.8843 52.5051 29.8843 53.4352Z" fill="#F9C900"/>
<path fill-rule="evenodd" clip-rule="evenodd" d="M19.3677 49.6227C19.3677 50.1914 19.1379 50.7579 18.6826 51.1722L11.5655 57.6896C10.7038 58.4781 9.36129 58.4232 8.56767 57.567C7.77193 56.7108 7.82725 55.3769 8.68895 54.5863L15.806 48.0711C16.6698 47.2825 18.0124 47.3354 18.806 48.1937C19.1826 48.5974 19.3677 49.1111 19.3677 49.6227Z" fill="#F9C900"/>
<mask id="mask0_238_104" style="mask-type:luminance" maskUnits="userSpaceOnUse" x="0" y="37" width="14" height="7">
<path fill-rule="evenodd" clip-rule="evenodd" d="M0 37.2717V43.897H13.616V37.2717L0 37.2717L0 37.2717Z" fill="white"/>
</mask>
<g mask="url(#mask0_238_104)">
<path fill-rule="evenodd" clip-rule="evenodd" d="M13.616 39.3837C13.616 40.3223 12.9798 41.1763 12.0245 41.4215L2.65426 43.8294C1.52022 44.1211 0.360642 43.4425 0.0670254 42.3158C-0.224464 41.189 0.456387 40.0369 1.59256 39.7452L10.9628 37.3395C12.0968 37.0477 13.2543 37.7242 13.5479 38.8531C13.5947 39.0306 13.616 39.2082 13.616 39.3837Z" fill="#F9C900"/>
</g>
<path fill-rule="evenodd" clip-rule="evenodd" d="M13.9139 27.5692C13.9139 27.7425 13.8926 27.918 13.8458 28.0955C13.5543 29.2223 12.3968 29.9009 11.2628 29.6112L1.88832 27.214C0.754282 26.9244 0.071303 25.7723 0.362792 24.6455C0.654282 23.5188 1.81173 22.8402 2.9479 23.1298L12.3202 25.5271C13.2777 25.7723 13.9139 26.6284 13.9139 27.5692Z" fill="#F9C900"/>
<path fill-rule="evenodd" clip-rule="evenodd" d="M19.3153 17.3003C19.3153 17.8288 19.1174 18.3573 18.7174 18.7653C17.9025 19.6024 16.5578 19.6236 15.7153 18.8139L8.76421 12.1232C7.92166 11.3135 7.90038 9.97963 8.71527 9.1425C9.53017 8.30537 10.8748 8.28423 11.7174 9.09388L18.6685 15.7825C19.1004 16.1968 19.3153 16.7486 19.3153 17.3003Z" fill="#F9C900"/>
<path fill-rule="evenodd" clip-rule="evenodd" d="M29.1759 11.4368C29.1759 12.3796 28.5334 13.2379 27.5717 13.4789C26.4355 13.7642 25.2802 13.0793 24.9951 11.9483L22.6291 2.62362C22.344 1.49265 23.0334 0.348987 24.1696 0.0636012C25.3057 -0.219671 26.4611 0.465256 26.7462 1.59412L29.1121 10.9188C29.1547 11.0922 29.1759 11.2655 29.1759 11.4368Z" fill="#F9C900"/>
<path fill-rule="evenodd" clip-rule="evenodd" d="M43.3854 2.79935C43.3854 2.97692 43.362 3.15661 43.3152 3.3363L40.8556 12.6357C40.5577 13.7624 39.396 14.4346 38.262 14.1387C37.13 13.8427 36.4513 12.6885 36.7492 11.5639L39.2088 2.2624C39.5066 1.13777 40.6683 0.463412 41.8024 0.759367C42.7556 1.00882 43.3854 1.86286 43.3854 2.79935Z" fill="#F9C900"/>
<path fill-rule="evenodd" clip-rule="evenodd" d="M58.7764 10.829C58.7764 11.4167 58.5296 12.0023 58.0466 12.4188L50.7445 18.7311C49.8615 19.4942 48.519 19.4012 47.7509 18.5239C46.9807 17.6445 47.0743 16.3127 47.9594 15.5474L55.2615 9.23723C56.1445 8.47197 57.4849 8.56499 58.2552 9.4444C58.6062 9.84394 58.7764 10.3386 58.7764 10.829Z" fill="#F9C900"/>
<path fill-rule="evenodd" clip-rule="evenodd" d="M66.302 24.903C66.302 25.8289 65.6828 26.6766 64.7403 26.9345L55.4084 29.4776C54.2764 29.7863 53.1084 29.1267 52.7998 28.0021C52.4892 26.8774 53.153 25.719 54.285 25.4103L63.6169 22.8672C64.7488 22.5586 65.9147 23.2181 66.2254 24.3428C66.2764 24.5288 66.302 24.7169 66.302 24.903Z" fill="#F9C900"/>
<path fill-rule="evenodd" clip-rule="evenodd" d="M66.1415 41.3442C66.1415 41.5175 66.1202 41.693 66.0734 41.8706C65.7819 42.9973 64.6245 43.6759 63.4904 43.3863L54.116 40.989C52.9819 40.6994 52.2968 39.5494 52.5904 38.4206C52.8819 37.2938 54.0394 36.6152 55.1755 36.9048L64.5479 39.3021C65.5053 39.5473 66.1415 40.4035 66.1415 41.3442Z" fill="#F9C900"/>
<path fill-rule="evenodd" clip-rule="evenodd" d="M58.2155 55.8243C58.2155 56.3718 58.0027 56.9172 57.5772 57.3294C56.7389 58.1454 55.3942 58.1306 54.5751 57.2977L47.8091 50.4209C46.99 49.588 47.0049 48.2541 47.8432 47.4403C48.6815 46.6243 50.0261 46.6391 50.8453 47.472L57.6113 54.3487C58.0155 54.7588 58.2155 55.2915 58.2155 55.8243Z" fill="#F9C900"/>
<path fill-rule="evenodd" clip-rule="evenodd" d="M43.6032 63.6011C43.6032 64.5313 42.9798 65.3811 42.033 65.6348C40.9011 65.9371 39.7351 65.2712 39.4309 64.1465L36.9117 54.862C36.6075 53.7373 37.2777 52.581 38.4096 52.2766C39.5415 51.9743 40.7075 52.6402 41.0117 53.7648L43.5287 63.0494C43.5798 63.2333 43.6032 63.4193 43.6032 63.6011Z" fill="#F9C900"/>
<mask id="mask1_238_104" style="mask-type:luminance" maskUnits="userSpaceOnUse" x="18" y="19" width="82" height="48">
<path fill-rule="evenodd" clip-rule="evenodd" d="M18.1161 66.2364H99.1778V19.9772H18.1161V66.2364Z" fill="white"/>
</mask>
<g mask="url(#mask1_238_104)">
<path fill-rule="evenodd" clip-rule="evenodd" d="M30.3927 41.5989C23.6246 41.5989 18.1161 47.1248 18.1161 53.9191C18.1161 60.7092 23.6246 66.2373 30.3927 66.2373H83.7693C92.2672 66.2373 99.1778 59.2992 99.1778 50.7714C99.1778 42.2437 92.2672 35.3056 83.7693 35.3056C82.1884 35.3056 80.6161 35.5509 79.1012 36.0307L78.114 36.3457L77.765 35.3648C74.5033 26.1606 65.7842 19.9772 56.0714 19.9772C44.1969 19.9772 34.3416 28.9066 33.1459 40.747L33.0352 41.8441L31.9459 41.7089C31.3416 41.6327 30.848 41.5989 30.3927 41.5989Z" fill="#D6E3F2"/>
</g>
</g>
<path fill-rule="evenodd" clip-rule="evenodd" d="M35.1786 70.477C35.1786 70.477 32.3904 78.2919 33.1225 81.2891C33.7275 83.769 36.2066 85.3036 38.6528 84.712C41.1079 84.1182 42.5962 81.6209 41.9912 79.1433C41.2591 76.1439 35.1786 70.477 35.1786 70.477Z" fill="#38A1E8"/>
<path fill-rule="evenodd" clip-rule="evenodd" d="M52.7694 70.243C52.7694 70.243 49.9812 78.0579 50.7133 81.0573C51.3183 83.535 53.7974 85.0696 56.2437 84.478C58.6987 83.8842 60.187 81.3869 59.582 78.9093C58.8499 75.9099 52.7694 70.243 52.7694 70.243Z" fill="#38A1E8"/>
<path fill-rule="evenodd" clip-rule="evenodd" d="M71.0482 70C71.0482 70 68.26 77.815 68.9921 80.8121C69.5971 83.292 72.0762 84.8266 74.5225 84.235C76.9775 83.6412 78.4658 81.1439 77.8587 78.6663C77.1265 75.6669 71.0482 70 71.0482 70Z" fill="#38A1E8"/>
<defs>
<clipPath id="clip0_238_104">
<rect width="101" height="67" fill="white"/>
</clipPath>
</defs>
</svg>
