<svg width="84" height="66" viewBox="0 0 84 66" fill="none" xmlns="http://www.w3.org/2000/svg">
<g clip-path="url(#clip0_216_815)">
<path fill-rule="evenodd" clip-rule="evenodd" d="M26.9606 60.5138C26.9606 63.3657 24.6177 65.6785 21.7285 65.6785C18.8394 65.6785 16.4987 63.3657 16.4987 60.5138C16.4987 57.6619 18.8394 55.3492 21.7285 55.3492C24.6177 55.3492 26.9606 57.6619 26.9606 60.5138Z" fill="#4FB4ED"/>
<path fill-rule="evenodd" clip-rule="evenodd" d="M46.2963 60.5138C46.2963 63.3657 43.9534 65.6785 41.0642 65.6785C38.1751 65.6785 35.8344 63.3657 35.8344 60.5138C35.8344 57.6619 38.1751 55.3492 41.0642 55.3492C43.9534 55.3492 46.2963 57.6619 46.2963 60.5138Z" fill="#4FB4ED"/>
<path fill-rule="evenodd" clip-rule="evenodd" d="M65.8304 60.5138C65.8304 63.3657 63.4875 65.6785 60.5984 65.6785C57.7092 65.6785 55.3685 63.3657 55.3685 60.5138C55.3685 57.6619 57.7092 55.3492 60.5984 55.3492C63.4875 55.3492 65.8304 57.6619 65.8304 60.5138Z" fill="#4FB4ED"/>
<path fill-rule="evenodd" clip-rule="evenodd" d="M12.6576 22.1716C5.67933 22.1716 -0.000244141 27.8321 -0.000244141 34.792C-0.000244141 41.7475 5.67933 47.4102 12.6576 47.4102H67.6917C76.4535 47.4102 83.5788 40.3031 83.5788 31.5676C83.5788 22.8321 76.4535 15.725 67.6917 15.725C66.0618 15.725 64.4406 15.9762 62.8787 16.4678L61.8608 16.7904L61.501 15.7856C58.138 6.35719 49.1481 0.0231934 39.1337 0.0231934C26.8905 0.0231934 16.7292 9.17013 15.4963 21.2989L15.3822 22.4228L14.259 22.2842C13.636 22.2063 13.127 22.1716 12.6576 22.1716Z" fill="#D6E3F2"/>
</g>
<defs>
<clipPath id="clip0_216_815">
<rect width="84" height="66" fill="white"/>
</clipPath>
</defs>
</svg>
