<svg width="18" height="16" viewBox="0 0 18 16" fill="none" xmlns="http://www.w3.org/2000/svg">
<path d="M8.99849 1.33334C6.09649 1.33334 3.74939 3.42001 3.74939 6.00001C3.74939 8.78001 7.06382 12.6133 8.42859 14.0733C8.72854 14.3933 9.27594 14.3933 9.57589 14.0733C10.9332 12.6133 14.2476 8.78001 14.2476 6.00001C14.2476 3.42001 11.9005 1.33334 8.99849 1.33334ZM8.99849 7.66668C8.50129 7.66668 8.02446 7.49108 7.67289 7.17852C7.32132 6.86596 7.12381 6.44204 7.12381 6.00001C7.12381 5.55798 7.32132 5.13406 7.67289 4.8215C8.02446 4.50894 8.50129 4.33334 8.99849 4.33334C9.49568 4.33334 9.97252 4.50894 10.3241 4.8215C10.6757 5.13406 10.8732 5.55798 10.8732 6.00001C10.8732 6.44204 10.6757 6.86596 10.3241 7.17852C9.97252 7.49108 9.49568 7.66668 8.99849 7.66668Z" fill="white"/>
</svg>
